<svg width="378" height="378" viewBox="0 0 378 378" fill="none" xmlns="http://www.w3.org/2000/svg">
<path d="M250.503 282.684C254.092 253.323 235.211 234.603 185.354 218.665C161.198 210.415 149.822 199.602 150.087 184.742C151.102 168.241 166.441 156.225 186.79 155.835C202.814 156.008 218.444 160.839 231.778 169.741C233.588 170.866 234.852 170.679 235.882 169.116C237.286 166.866 240.797 161.413 241.968 159.428C242.763 158.178 242.92 156.522 240.907 155.053C238.02 152.913 229.921 148.569 225.567 146.74C213.168 141.486 199.848 138.755 186.384 138.709C156.579 138.834 133.125 157.694 131.143 182.867C129.874 201.055 138.873 215.78 158.139 227.041C162.243 229.416 184.355 238.229 193.156 240.979C220.839 249.604 235.211 265.073 231.825 283.121C228.75 299.481 211.554 310.06 187.851 310.372C169.078 309.653 152.163 301.981 139.055 291.778L136.855 290.059C135.232 288.809 133.453 288.887 132.376 290.528C131.596 291.731 126.509 299.075 125.229 300.997C124.027 302.684 124.683 303.622 125.931 304.653C131.393 309.232 138.68 314.232 143.627 316.763C157.329 323.755 172.402 327.633 187.773 328.123C198.839 328.65 209.887 326.762 220.152 322.591C237.239 315.326 248.288 300.809 250.503 282.684ZM189.005 23.8915C156.735 23.8915 130.425 54.3616 129.193 92.4881H248.802C247.539 54.3459 221.245 23.8759 189.005 23.8759M311.518 376.984L310.269 377L63.9651 376.969C47.2057 376.344 34.8936 362.749 33.2083 345.858L33.0522 342.811L22.0197 100.207C21.9474 99.2326 22.0743 98.2535 22.3928 97.3296C22.7112 96.4058 23.2144 95.5567 23.8716 94.8343C24.5289 94.1118 25.3263 93.5311 26.2153 93.1277C27.1043 92.7243 28.066 92.5067 29.0418 92.4881H106.675C108.563 42.1267 144.688 2 189.005 2C233.323 2 269.416 42.1423 271.32 92.4725H348.844C349.815 92.4755 350.775 92.6758 351.667 93.0611C352.558 93.4465 353.362 94.009 354.031 94.7145C354.699 95.4201 355.217 96.254 355.554 97.1659C355.891 98.0778 356.04 99.0486 355.991 100.02L343.929 343.592L343.819 345.639C342.353 362.734 328.542 376.531 311.518 376.984Z" fill="white"/>
</svg>
